<?xml version="1.0" standalone="no"?>
<!DOCTYPE svg PUBLIC "-//W3C//DTD SVG 20010904//EN"
 "http://www.w3.org/TR/2001/REC-SVG-20010904/DTD/svg10.dtd">
<svg version="1.0" xmlns="http://www.w3.org/2000/svg"
 width="570.000000pt" height="570.000000pt" viewBox="0 0 570.000000 570.000000"
 preserveAspectRatio="xMidYMid meet">
<metadata>
Created by potrace 1.14, written by Peter Selinger 2001-2017
</metadata>
<g transform="translate(0.000000,570.000000) scale(0.100000,-0.100000)"
fill="#000000" stroke="none">
<path d="M2645 5690 c-3 -5 -22 -10 -42 -10 -103 0 -391 -55 -571 -109 -967
-291 -1706 -1069 -1943 -2045 -26 -109 -69 -370 -69 -423 0 -23 -4 -45 -10
-48 -14 -8 -14 -402 0 -410 5 -3 10 -24 10 -46 0 -21 7 -85 15 -142 79 -529
276 -983 606 -1397 321 -402 763 -714 1259 -888 213 -75 467 -132 660 -148 44
-4 83 -11 86 -15 7 -12 390 -11 412 0 9 5 67 14 127 21 371 39 769 171 1104
368 593 348 1028 883 1251 1538 69 203 140 538 140 663 0 22 5 43 10 46 12 8
14 411 1 419 -4 3 -11 38 -14 78 -30 350 -167 781 -349 1101 -349 615 -873
1053 -1543 1290 -210 75 -548 147 -684 147 -22 0 -43 5 -46 10 -4 6 -83 10
-205 10 -122 0 -201 -4 -205 -10z m518 -216 c125 -18 157 -32 157 -69 0 -21
-5 -25 -30 -25 -20 0 -30 5 -30 15 0 8 -13 16 -32 20 -106 17 -162 24 -169 19
-5 -3 -9 -18 -9 -34 0 -33 -7 -31 140 -54 113 -19 124 -28 115 -100 -7 -57
-18 -81 -40 -90 -22 -8 -273 30 -291 44 -8 7 -14 25 -14 41 0 25 4 29 29 29
19 0 30 -6 33 -18 4 -14 24 -20 108 -30 56 -8 103 -12 105 -10 1 2 6 17 9 35
8 37 10 36 -119 53 -109 15 -135 28 -135 73 0 64 24 116 53 117 5 0 59 -7 120
-16z m-508 -24 c40 -25 60 -70 59 -133 -1 -72 -52 -129 -125 -142 -34 -6 -37
-5 -41 20 -4 19 -1 28 11 31 65 20 97 63 87 118 -9 45 -37 72 -85 80 -36 5
-41 9 -41 33 0 25 1 26 51 20 28 -4 65 -15 84 -27z m-185 -5 c0 -19 -5 -25
-22 -25 -45 0 -48 -10 -38 -100 5 -47 10 -91 10 -99 0 -10 9 -12 34 -8 34 5
46 -4 46 -37 0 -13 -127 -33 -137 -22 -5 5 -32 246 -33 288 0 13 11 18 43 21
99 9 97 9 97 -18z m-267 -63 c-6 -4 -59 -21 -118 -37 l-106 -30 5 -30 c4 -16
10 -32 14 -36 4 -4 36 2 70 13 35 10 65 18 67 16 1 -2 5 -12 9 -24 6 -19 0
-23 -59 -39 -36 -9 -67 -21 -70 -25 -7 -11 15 -70 27 -70 5 0 59 14 119 32 60
17 111 29 113 27 2 -2 6 -13 10 -25 6 -19 -5 -24 -137 -62 -78 -23 -148 -42
-154 -42 -7 0 -21 30 -32 68 -42 143 -61 216 -55 221 3 3 69 24 147 47 137 40
142 41 151 22 7 -13 6 -22 -1 -26z m1392 4 c150 -38 170 -45 167 -62 -6 -29
-7 -29 -78 -12 -77 18 -65 31 -104 -120 l-27 -107 -29 3 c-16 2 -31 5 -33 7
-3 4 37 178 55 236 4 13 -10 20 -66 34 -54 13 -70 21 -66 32 3 8 6 19 6 24 0
11 -21 15 175 -35z m-1805 -126 c9 -17 3 -23 -50 -52 -33 -18 -60 -37 -60 -42
0 -4 25 -52 55 -106 30 -54 55 -103 55 -109 0 -12 -47 -38 -54 -30 -2 2 -30
52 -62 111 l-60 107 -62 -33 c-50 -28 -64 -31 -73 -20 -6 7 -9 18 -7 24 4 12
276 167 295 169 7 1 17 -8 23 -19z m2160 -15 c0 -23 -41 -80 -77 -105 -23 -17
-43 -35 -43 -39 0 -4 27 -19 60 -34 l60 -26 0 65 c0 63 20 124 39 124 5 0 12
-33 16 -72 10 -113 22 -283 19 -286 -1 -2 -16 4 -33 13 -22 11 -31 23 -31 39
0 45 -12 57 -100 101 l-88 44 -32 -24 c-27 -20 -36 -22 -56 -13 -13 6 -24 15
-24 19 0 8 270 198 283 199 4 0 7 -2 7 -5z m442 -249 c87 -60 97 -70 88 -87
-14 -26 -19 -25 -82 20 l-55 40 -72 -105 c-40 -57 -75 -104 -78 -104 -11 0
-43 32 -43 43 0 5 15 30 33 56 18 25 50 69 70 97 l37 51 -58 39 c-31 21 -59
39 -61 41 -2 2 4 12 14 23 18 20 18 19 64 -14 25 -18 90 -63 143 -100z m-2968
-88 l86 -123 -23 -17 c-12 -10 -25 -18 -29 -18 -3 0 -45 55 -92 123 l-87 122
22 18 c12 9 25 17 29 17 5 0 47 -55 94 -122z m1781 48 c462 -86 852 -290 1172
-617 79 -81 196 -220 190 -226 -2 -1 -28 4 -58 12 -30 8 -88 24 -130 35 -42
11 -114 37 -160 58 -46 22 -100 44 -120 51 -20 6 -66 30 -102 51 -37 22 -102
53 -145 69 -44 16 -138 59 -209 94 -137 69 -201 87 -310 87 -75 0 -116 -18
-139 -61 -12 -24 -13 -37 -5 -61 24 -68 3 -140 -45 -152 -27 -7 -64 15 -64 37
0 6 -8 29 -18 51 -11 23 -24 70 -31 105 -26 133 -51 167 -145 192 -45 12 -149
7 -169 -9 -7 -5 -32 -12 -56 -15 -53 -7 -82 -33 -84 -77 l-2 -33 51 -1 c63 -1
100 -27 83 -57 -5 -11 -7 -35 -3 -54 10 -53 -2 -79 -46 -109 -47 -31 -61 -32
-84 -7 -20 22 -21 35 -12 122 7 61 6 67 -18 96 -54 64 -194 55 -404 -27 -123
-47 -201 -82 -457 -205 -156 -75 -309 -132 -415 -156 -139 -31 -141 -30 -80
44 349 421 817 687 1355 771 135 20 530 16 660 -8z m-1867 -302 c-13 -13 -53
-20 -175 -30 -87 -7 -162 -13 -168 -14 -5 0 23 -33 64 -74 65 -66 72 -76 62
-95 -7 -11 -17 -21 -23 -21 -7 0 -58 48 -114 108 -131 138 -134 135 96 152
l170 13 -75 72 c-41 40 -75 76 -75 80 0 5 8 17 17 27 16 18 21 15 127 -91 103
-104 110 -112 94 -127z m3366 74 c101 -107 105 -113 88 -131 -16 -18 -20 -15
-101 73 l-84 91 -29 -27 -28 -28 50 -51 c49 -50 50 -52 32 -68 -18 -17 -21
-15 -66 33 -26 27 -50 50 -55 50 -4 0 -18 -11 -31 -25 l-24 -25 35 -38 c18
-20 56 -61 84 -90 41 -43 48 -55 39 -70 -6 -9 -15 -17 -20 -17 -5 0 -57 50
-117 111 l-107 110 107 107 c60 59 111 107 115 107 3 0 54 -50 112 -112z m299
-348 c69 -95 78 -122 53 -156 -15 -19 -15 -19 -37 3 -17 16 -20 25 -12 35 8
10 -4 33 -49 96 l-60 82 -29 -21 -30 -21 24 -31 c55 -72 117 -169 117 -182 0
-18 -78 -84 -108 -92 -16 -4 -31 2 -49 18 -40 37 -153 205 -153 226 0 11 9 28
20 38 19 17 21 17 40 0 15 -13 17 -21 9 -31 -6 -7 -7 -19 -2 -27 24 -39 117
-167 122 -167 3 0 18 10 33 23 l27 22 -69 95 c-38 52 -70 102 -70 111 0 19 44
62 85 83 40 21 54 10 138 -104z m-4055 -14 c66 -46 65 -62 -11 -174 -76 -113
-109 -147 -135 -140 -10 3 -66 38 -124 79 -83 58 -104 77 -97 89 26 45 23 46
128 -29 56 -39 105 -71 109 -71 4 1 33 39 64 85 65 96 71 78 -59 169 -46 32
-83 61 -83 64 0 4 7 18 16 30 l16 23 66 -47 c37 -26 86 -61 110 -78z m212
-326 c7 -13 21 -20 39 -20 18 0 34 -8 42 -20 8 -12 26 -22 41 -23 15 -1 36
-12 48 -25 19 -20 27 -22 83 -16 51 5 65 3 76 -10 21 -26 99 -20 198 15 48 17
97 30 108 30 11 -1 33 -2 49 -3 16 0 38 -10 48 -20 22 -22 47 -19 116 14 36
17 47 18 71 8 16 -6 37 -10 47 -9 11 2 28 -2 40 -8 11 -7 29 -12 40 -12 40 -1
100 -14 112 -24 8 -6 27 -10 43 -9 16 1 40 -3 52 -10 12 -7 33 -14 47 -15 54
-5 100 -16 106 -24 3 -5 14 -9 25 -9 10 0 19 -4 19 -10 0 -5 -54 -62 -121
-127 -132 -128 -152 -158 -122 -183 10 -8 17 -25 15 -37 -3 -19 1 -23 26 -23
22 0 31 -6 35 -21 4 -17 -2 -24 -31 -35 -112 -45 -199 -105 -324 -220 -56 -52
-147 -191 -181 -275 -36 -93 -66 -213 -76 -312 -9 -90 -7 -140 11 -252 20
-128 25 -118 -74 -134 -73 -12 -93 -13 -127 -1 -143 47 -217 235 -161 405 12
37 35 81 50 98 l28 31 53 -37 c57 -39 80 -45 96 -24 5 6 24 55 42 107 37 108
111 252 182 356 79 114 68 130 -89 121 -119 -6 -248 -39 -348 -88 -60 -30
-269 -189 -287 -220 -20 -33 -1 -49 57 -49 30 0 58 -4 61 -10 3 -5 -7 -29 -23
-52 -40 -59 -60 -100 -90 -182 -24 -68 -25 -85 -32 -391 -6 -286 -9 -326 -27
-377 -22 -58 -66 -130 -101 -161 -19 -17 -20 -17 -46 27 -132 226 -233 518
-270 784 -21 145 -21 441 -1 582 37 261 116 500 244 735 79 147 109 185 142
185 18 0 32 -7 39 -20z m3522 -95 c152 -254 252 -548 288 -845 16 -130 13
-408 -5 -540 -34 -237 -105 -464 -215 -680 -175 -342 -449 -641 -772 -842
-246 -153 -546 -261 -838 -303 -137 -19 -426 -19 -572 0 -392 52 -761 212
-1073 466 -99 80 -279 269 -354 369 l-63 85 59 8 c72 10 170 3 215 -16 19 -8
83 -58 144 -112 172 -155 287 -234 395 -274 101 -38 309 -90 385 -97 l76 -7
-8 -41 c-4 -23 -8 -59 -8 -81 -1 -38 0 -40 32 -43 45 -5 154 48 290 140 155
105 302 257 302 314 0 25 -1 25 -245 44 -71 6 -192 20 -269 32 -133 21 -139
21 -152 4 -11 -16 -9 -28 12 -83 13 -36 24 -69 24 -74 0 -26 -149 10 -245 59
-129 65 -244 187 -264 282 -27 128 -7 179 93 235 54 30 69 34 86 25 11 -6 20
-14 20 -19 0 -18 127 -145 203 -202 208 -157 462 -226 739 -199 68 6 143 16
168 22 113 27 278 124 419 247 118 103 236 309 283 494 18 72 20 102 15 262
-4 148 -9 192 -27 249 l-22 69 24 19 c12 9 26 18 30 18 4 0 41 -62 84 -137
135 -242 141 -250 207 -295 77 -52 105 -53 191 -2 72 42 86 63 86 133 0 70
-18 111 -124 288 -52 87 -93 159 -92 161 2 1 16 -3 32 -9 16 -6 70 -12 119
-13 81 -1 95 2 136 26 56 33 101 82 134 148 35 70 36 201 1 276 -27 58 -54 82
-142 125 -91 45 -170 50 -249 15 -114 -51 -178 -135 -196 -259 -6 -43 -13 -76
-14 -75 -1 2 -36 57 -76 123 -123 202 -130 209 -205 235 -75 25 -88 22 -181
-37 l-53 -33 0 -60 c0 -33 6 -75 14 -93 7 -18 64 -99 125 -182 62 -82 115
-153 118 -158 6 -11 -27 -36 -48 -37 -8 0 -31 21 -50 46 -80 107 -282 266
-390 308 -86 33 -91 37 -80 55 7 11 15 9 39 -9 31 -23 52 -20 52 5 0 11 8 13
30 9 26 -6 30 -4 30 15 0 12 7 24 15 27 23 9 18 38 -10 64 -14 13 -25 31 -25
39 -1 26 -24 49 -97 99 -74 51 -86 76 -58 118 11 18 22 23 35 19 11 -3 30 0
42 6 13 7 31 12 41 10 10 -1 25 3 34 10 8 7 30 12 48 11 21 -2 35 3 38 12 5
12 12 13 37 5 23 -9 34 -8 47 2 9 8 30 15 47 16 17 1 55 6 84 13 46 9 57 9 78
-5 17 -11 35 -14 58 -9 19 3 43 1 54 -5 16 -8 25 -6 44 8 24 19 25 19 83 0 32
-10 77 -19 99 -19 23 0 69 -5 103 -10 49 -8 70 -7 96 4 18 7 52 12 75 11 25
-2 55 4 76 14 19 10 49 21 67 25 18 3 51 21 73 40 72 59 80 56 148 -59z m-280
-425 c30 0 94 -69 108 -117 8 -24 10 -56 5 -79 -9 -50 -68 -110 -118 -119 -53
-10 -68 -2 -61 34 10 48 -4 83 -52 127 -41 39 -44 44 -33 70 5 16 18 37 27 48
21 24 73 47 90 41 8 -3 23 -5 34 -5z m-1747 -173 c45 -30 50 -36 47 -66 -4
-51 28 -86 87 -98 45 -9 52 -8 77 12 26 21 27 25 16 49 -7 15 -12 29 -12 31 0
14 52 1 95 -24 93 -54 108 -94 40 -107 -39 -7 -75 -38 -75 -64 0 -8 -9 -31
-20 -50 -57 -98 -69 -132 -63 -182 5 -41 3 -48 -11 -48 -9 0 -28 12 -40 27
-23 27 -25 27 -63 14 -97 -34 -124 -70 -83 -111 25 -25 45 -25 77 0 l25 20 47
-52 c25 -28 58 -68 74 -88 34 -46 53 -52 120 -34 101 27 260 10 313 -33 102
-83 146 -114 191 -137 29 -14 58 -36 64 -48 11 -20 8 -26 -33 -63 -25 -22 -55
-59 -67 -82 -13 -26 -43 -58 -75 -82 -38 -28 -65 -59 -90 -105 -20 -35 -55
-80 -77 -100 -58 -49 -88 -97 -99 -158 -13 -67 -23 -77 -58 -57 -24 13 -28 23
-36 84 -11 93 -11 126 2 215 27 180 31 157 -37 233 -34 37 -61 76 -61 86 0 10
-7 32 -16 50 -15 29 -14 34 6 76 24 50 22 58 -23 82 -18 9 -55 34 -83 55 -34
26 -69 42 -100 47 -52 9 -162 51 -200 76 -13 8 -49 51 -79 94 -57 82 -74 94
-112 78 -12 -5 -29 -7 -39 -3 -27 10 -14 163 19 237 29 64 26 96 -9 110 -45
17 -26 36 89 87 139 62 134 60 182 61 30 1 53 -8 90 -32z m2718 -289 l28 -87
101 -3 102 -3 -80 -59 c-43 -33 -80 -60 -81 -60 -1 -1 11 -41 28 -90 16 -49
27 -91 25 -94 -3 -2 -36 19 -74 47 -38 28 -75 51 -82 51 -7 0 -46 -25 -86 -55
-40 -30 -75 -55 -78 -55 -3 0 8 39 25 87 16 48 29 92 29 99 0 7 -37 38 -81 71
l-82 58 104 3 104 3 29 95 c16 52 32 91 36 87 3 -4 18 -47 33 -95z m-4978 -10
l26 -87 102 -3 101 -3 -80 -60 -80 -59 28 -90 c15 -49 26 -91 24 -94 -3 -2
-39 21 -81 52 l-76 57 -79 -61 c-43 -33 -81 -60 -84 -60 -3 0 8 39 25 87 16
48 29 92 29 99 0 7 -36 39 -81 71 l-81 58 104 3 105 3 28 95 c15 52 31 91 36
87 4 -4 19 -47 34 -95z m507 -1502 c9 -20 6 -46 -16 -130 -14 -58 -26 -110
-26 -115 0 -5 51 -9 121 -8 113 2 122 1 135 -19 14 -20 9 -25 -87 -100 -152
-118 -139 -111 -155 -89 -8 10 -14 22 -14 27 0 4 36 37 81 73 l81 65 -116 0
c-64 0 -116 3 -116 8 0 7 41 158 54 201 6 18 -11 8 -80 -47 -88 -70 -105 -75
-116 -36 -3 10 219 194 235 194 4 0 12 -11 19 -24z m3965 3 c17 -17 -5 -61
-27 -54 -13 4 -34 -17 -79 -75 l-63 -80 24 -20 c13 -11 28 -19 33 -19 6 0 35
34 65 75 97 132 110 137 191 65 l44 -39 -17 -33 c-9 -19 -48 -74 -86 -124 -70
-92 -92 -106 -131 -85 -18 9 -19 14 -9 35 8 18 17 24 29 20 13 -4 32 14 76 72
79 105 77 99 44 122 l-29 21 -70 -89 c-93 -117 -98 -119 -159 -77 -70 48 -70
72 3 167 32 41 69 86 82 102 27 28 60 35 79 16z m-223 -339 c25 -27 46 -55 46
-62 0 -7 -40 -52 -88 -100 l-89 -87 40 -39 c41 -42 44 -62 10 -80 -15 -8 -35
8 -122 100 l-104 110 52 51 c48 49 52 51 68 34 16 -16 16 -18 -9 -44 l-27 -28
29 -35 29 -35 71 71 71 70 -21 27 c-27 34 -37 34 -72 0 -27 -26 -29 -26 -46
-9 -16 16 -15 19 30 62 26 24 55 44 66 44 11 0 40 -22 66 -50z m-3354 -118 c0
-21 -60 -71 -103 -87 -26 -9 -47 -20 -45 -24 2 -4 24 -26 50 -50 l47 -42 10
38 c6 21 11 46 11 55 0 20 58 90 69 83 7 -3 -53 -342 -61 -351 -2 -1 -15 8
-30 21 -24 20 -26 26 -18 61 5 21 8 39 7 39 -1 0 -35 29 -75 64 l-73 64 -41
-12 c-37 -12 -43 -11 -61 8 -12 11 -19 22 -16 24 6 5 312 115 322 116 4 1 7
-3 7 -7z m3030 -154 c48 -67 49 -86 6 -124 l-36 -31 37 -7 c21 -3 57 -6 80 -6
56 0 60 -12 13 -39 -39 -21 -41 -22 -120 -7 -55 11 -87 13 -98 6 -47 -26 -46
-25 -14 -78 l31 -50 -24 -16 c-13 -9 -26 -16 -29 -16 -2 0 -41 57 -86 126
l-83 127 24 18 c13 10 39 26 57 36 32 17 34 17 48 -1 12 -18 11 -21 -17 -38
l-30 -18 18 -31 c10 -17 23 -34 28 -39 11 -9 156 86 162 106 2 7 -7 24 -20 40
l-24 27 -35 -21 c-43 -27 -45 -27 -57 -3 -9 16 -4 23 37 50 66 43 95 41 132
-11z m-2746 -71 c49 -30 53 -35 43 -54 -11 -20 -14 -20 -37 -8 -35 20 -36 19
-61 -21 -25 -41 -30 -34 68 -89 72 -41 86 -43 107 -13 24 33 20 46 -19 69 -64
38 -35 75 32 41 81 -42 88 -73 37 -153 -31 -50 -47 -56 -91 -35 -20 9 -37 15
-40 13 -2 -2 10 -39 26 -81 16 -42 27 -76 25 -76 -2 0 -21 11 -42 24 -33 21
-40 32 -61 105 -20 68 -29 84 -52 96 -15 8 -30 15 -33 15 -2 0 -16 -20 -30
-45 -15 -25 -32 -45 -39 -45 -18 1 -50 27 -44 37 44 79 149 253 152 253 2 0
29 -15 59 -33z m2364 -115 c19 -12 104 -211 100 -236 -2 -15 -23 -31 -71 -55
-37 -19 -69 -32 -71 -30 -2 2 -7 14 -10 27 -7 19 -1 25 39 42 28 12 45 25 42
33 -38 98 -72 167 -83 167 -7 0 -29 -8 -49 -17 -31 -15 -37 -15 -45 -3 -17 27
-11 35 43 57 56 24 84 28 105 15z m-178 -90 c0 -7 -21 -22 -46 -32 -25 -11
-44 -24 -42 -28 51 -126 74 -172 85 -172 8 0 28 7 44 16 36 18 59 13 59 -14 0
-23 -82 -62 -129 -62 -27 0 -33 6 -61 67 -60 126 -71 162 -59 185 14 27 131
80 141 65 4 -7 8 -18 8 -25z m-1760 -25 c0 -14 -99 -260 -109 -270 -11 -11
-63 14 -57 27 2 6 27 70 56 143 l53 131 28 -10 c16 -5 29 -15 29 -21z m195
-55 c6 -4 53 -63 103 -132 51 -69 96 -125 99 -125 3 0 16 42 28 93 12 51 25
95 28 98 3 4 17 4 30 0 l25 -6 -25 -102 c-13 -57 -29 -124 -35 -151 -19 -78
-36 -66 -167 111 -78 106 -91 120 -96 100 -45 -193 -41 -183 -66 -180 -13 1
-26 6 -30 10 -3 4 10 71 29 150 35 142 44 158 77 134z m1322 -4 c6 -7 13 -25
17 -40 5 -21 2 -30 -15 -38 -27 -15 -49 -6 -49 20 0 11 -4 20 -9 20 -18 0
-191 -42 -191 -46 0 -10 41 -189 44 -192 2 -1 47 7 100 19 l96 22 -6 34 c-6
32 -6 33 30 33 l36 0 0 -48 c0 -59 -6 -63 -163 -97 -115 -25 -137 -23 -156 13
-15 28 -51 219 -45 235 7 20 21 25 129 52 103 26 168 31 182 13z m-696 -78
l109 0 0 -26 0 -26 -122 3 -123 4 -3 -37 -3 -37 73 -3 c67 -3 73 -5 76 -25 3
-22 0 -23 -72 -23 l-76 0 0 -38 0 -39 123 -9 c120 -9 122 -9 122 -34 0 -27 5
-27 -212 -14 l-103 6 0 78 c0 42 3 112 7 155 l6 77 45 -6 c25 -3 94 -6 153 -6z"/>
</g>
</svg>
