<?xml version="1.0" standalone="no"?>
<!DOCTYPE svg PUBLIC "-//W3C//DTD SVG 20010904//EN"
 "http://www.w3.org/TR/2001/REC-SVG-20010904/DTD/svg10.dtd">
<svg version="1.0" xmlns="http://www.w3.org/2000/svg"
 width="1080.000000pt" height="1080.000000pt" viewBox="0 0 1080.000000 1080.000000"
 preserveAspectRatio="xMidYMid meet">
<metadata>
Created by potrace 1.14, written by Peter Selinger 2001-2017
</metadata>
<g transform="translate(0.000000,1080.000000) scale(0.100000,-0.100000)"
fill="#000000" stroke="none">
<path d="M5118 10795 c-2 -1 -52 -6 -113 -9 -60 -4 -119 -9 -130 -11 -11 -2
-47 -7 -81 -10 -68 -6 -271 -33 -294 -40 -8 -2 -31 -6 -50 -9 -339 -50 -893
-220 -1247 -382 -18 -8 -35 -15 -38 -15 -11 0 -359 -180 -460 -238 -100 -58
-368 -229 -405 -258 -8 -6 -61 -45 -116 -86 -118 -87 -110 -81 -237 -186 -53
-45 -100 -81 -105 -81 -4 0 -49 41 -100 90 -51 50 -97 90 -101 90 -15 0 -296
-271 -406 -391 -22 -24 -71 -80 -109 -124 -38 -44 -72 -82 -75 -85 -13 -10
-190 -239 -253 -325 -109 -150 -358 -541 -358 -561 0 -3 -10 -20 -22 -37 -13
-18 -22 -34 -21 -37 1 -3 -14 -33 -33 -68 -20 -34 -34 -67 -32 -71 3 -7 46 8
208 71 113 45 665 255 667 254 0 0 4 -26 7 -56 4 -30 8 -71 11 -90 2 -19 7
-66 10 -105 9 -94 14 -152 20 -200 2 -22 7 -71 10 -110 3 -38 8 -81 10 -95 2
-14 7 -59 10 -100 10 -115 14 -152 18 -157 2 -2 25 38 50 89 155 312 390 662
623 927 22 24 47 53 57 64 17 20 17 20 46 -7 l29 -28 -31 -36 c-18 -20 -41
-46 -52 -57 -58 -61 -213 -263 -307 -400 -175 -255 -329 -541 -446 -825 -106
-257 -223 -659 -259 -885 -2 -16 -6 -41 -9 -55 -3 -14 -7 -38 -9 -55 -3 -16
-9 -61 -15 -100 -40 -276 -48 -801 -15 -1060 11 -86 35 -261 39 -280 2 -11 7
-40 11 -65 11 -67 14 -80 26 -135 108 -468 255 -853 479 -1256 132 -235 439
-659 572 -788 17 -17 16 -19 -13 -47 -30 -29 -31 -29 -45 -9 -8 11 -30 36 -48
55 -66 70 -259 320 -333 430 -127 190 -231 367 -309 524 l-39 79 -6 -39 c-7
-41 -15 -115 -33 -324 -4 -41 -9 -86 -11 -100 -2 -14 -6 -61 -10 -104 -4 -43
-8 -86 -10 -95 -1 -9 -6 -53 -10 -99 -4 -46 -8 -91 -10 -100 -2 -9 -4 -27 -4
-39 l-1 -21 -52 20 c-29 11 -80 30 -113 43 -205 76 -655 249 -682 261 -17 8
-34 14 -38 14 -19 0 214 -405 358 -620 98 -145 330 -455 367 -490 3 -3 35 -39
70 -80 160 -184 497 -520 522 -520 4 0 49 40 100 90 51 49 98 89 103 89 6 0
33 -20 60 -45 182 -163 579 -441 852 -595 74 -42 339 -176 418 -211 212 -95
545 -218 715 -264 240 -66 408 -105 505 -119 22 -4 47 -8 55 -10 8 -3 32 -7
54 -11 21 -3 46 -7 55 -9 9 -1 39 -6 66 -9 28 -4 66 -9 85 -12 19 -2 58 -7 85
-10 28 -3 66 -7 85 -9 108 -14 276 -20 525 -20 283 0 413 7 610 30 28 3 70 8
95 11 25 3 86 12 135 20 50 9 99 17 110 18 11 2 34 6 50 10 17 3 41 8 55 11
120 23 330 73 420 100 502 154 826 292 1220 518 120 68 416 262 505 330 33 25
80 61 104 79 24 18 51 40 60 48 9 8 49 41 87 72 39 31 78 63 86 71 12 13 26 3
111 -79 54 -52 101 -94 104 -94 25 0 349 322 527 524 188 215 430 546 583 801
79 132 203 360 203 375 0 6 -18 3 -42 -7 -90 -36 -833 -320 -835 -319 -1 1
-11 79 -18 151 -8 90 -24 245 -30 300 -2 22 -7 69 -10 105 -3 36 -8 85 -10
110 -3 25 -8 70 -10 100 -3 30 -8 75 -10 99 -2 24 -6 45 -8 47 -2 2 -21 -31
-42 -74 -151 -305 -452 -748 -660 -970 -22 -24 -41 -48 -43 -53 -7 -19 -29 -8
-44 23 l-16 33 47 50 c83 91 148 171 252 313 43 59 82 112 86 117 31 39 157
245 233 380 32 57 134 262 165 331 129 289 268 735 309 989 5 34 19 117 21
125 1 3 5 32 9 65 4 33 9 74 12 90 20 142 28 308 29 545 0 212 -10 454 -19
469 -2 3 -7 38 -10 77 -3 40 -8 78 -11 85 -2 8 -6 32 -9 54 -3 22 -14 90 -26
150 -12 61 -24 121 -26 135 -16 87 -128 476 -154 535 -5 11 -25 61 -44 112
-61 161 -172 398 -246 528 -13 22 -36 65 -53 95 -25 46 -203 323 -229 355 -4
6 -60 77 -123 158 -64 82 -127 160 -140 174 -12 14 -35 37 -49 52 l-26 27 29
28 c29 27 29 28 48 9 77 -81 272 -325 345 -433 10 -14 31 -44 48 -68 16 -23
30 -45 30 -47 0 -3 15 -26 34 -52 41 -59 167 -277 226 -395 25 -48 46 -85 49
-83 2 3 5 17 6 32 1 16 6 66 9 113 4 47 9 96 11 110 3 14 7 59 10 99 3 41 7
86 10 100 2 15 7 59 10 100 4 41 8 88 10 105 3 17 7 65 11 106 3 41 9 91 12
111 l7 36 440 -169 c242 -92 441 -168 443 -168 3 0 -51 102 -113 215 -215 390
-504 786 -825 1129 -135 144 -366 366 -381 366 -4 0 -49 -40 -100 -90 -52 -49
-98 -90 -102 -90 -5 0 -37 24 -70 54 -114 99 -341 268 -512 381 -408 270 -818
469 -1285 625 -85 28 -162 53 -170 55 -26 6 -91 23 -190 49 -86 23 -290 68
-372 81 -18 3 -44 7 -58 10 -14 3 -38 7 -55 9 -16 2 -50 7 -75 11 -81 12 -94
14 -145 19 -27 3 -73 8 -102 11 -28 4 -76 8 -105 11 -60 5 -695 14 -700 9z"/>
</g>
</svg>
